HIERARCHY
ROOT joint_Root
{
	OFFSET 0.0 0.0 0.0
	CHANNELS 6 Xposition Yposition Zposition Zrotation Xrotation Yrotation 
	JOINT Hips
	{
		OFFSET -0.726466 93.3139 -2.00062
		CHANNELS 6 Xposition Yposition Zposition Zrotation Xrotation Yrotation 
		JOINT Spine
		{
			OFFSET 15.7357 0.0 0.0
			CHANNELS 6 Xposition Yposition Zposition Zrotation Xrotation Yrotation 
			JOINT Chest
			{
				OFFSET 8.98455 -0.406207 0.0
				CHANNELS 6 Xposition Yposition Zposition Zrotation Xrotation Yrotation 
				JOINT Neck
				{
					OFFSET 16.3773 0.0 0.0
					CHANNELS 6 Xposition Yposition Zposition Zrotation Xrotation Yrotation 
					JOINT Head
					{
						OFFSET 6.45672 0.0 0.0
						CHANNELS 6 Xposition Yposition Zposition Zrotation Xrotation Yrotation 
						End Site
						{
							OFFSET 0.0 0.0 0.0
						}
					}
				}
				JOINT Shoulder_L
				{
					OFFSET 12.9942 -0.242716 4.98039
					CHANNELS 6 Xposition Yposition Zposition Zrotation Xrotation Yrotation 
					JOINT UpperArm_L
					{
						OFFSET 5.34809 0.0 0.0
						CHANNELS 6 Xposition Yposition Zposition Zrotation Xrotation Yrotation 
						JOINT LowerArm_L
						{
							OFFSET 24.3286 1.87007e-05 0.0
							CHANNELS 6 Xposition Yposition Zposition Zrotation Xrotation Yrotation 
							JOINT Hand_L
							{
								OFFSET 22.2916 0.0 0.0
								CHANNELS 6 Xposition Yposition Zposition Zrotation Xrotation Yrotation 
								End Site
								{
									OFFSET 0.0 0.0 0.0
								}
							}
						}
					}
				}
				JOINT Shoulder_R
				{
					OFFSET 12.9945 -0.242716 -4.98039
					CHANNELS 6 Xposition Yposition Zposition Zrotation Xrotation Yrotation 
					JOINT UpperArm_R
					{
						OFFSET -5.34813 0.0 0.0
						CHANNELS 6 Xposition Yposition Zposition Zrotation Xrotation Yrotation 
						JOINT LowerArm_R
						{
							OFFSET -24.3289 0.000322201 0.0
							CHANNELS 6 Xposition Yposition Zposition Zrotation Xrotation Yrotation 
							JOINT Hand_R
							{
								OFFSET -22.2915 -0.000108084 0.0
								CHANNELS 6 Xposition Yposition Zposition Zrotation Xrotation Yrotation 
								End Site
								{
									OFFSET 0.0 0.0 0.0
								}
							}
						}
					}
				}
			}
		}
		JOINT UpperLeg_L
		{
			OFFSET -2.19248 -6.46944 0.0
			CHANNELS 6 Xposition Yposition Zposition Zrotation Xrotation Yrotation 
			JOINT LowerLeg_L
			{
				OFFSET 39.0811 0.0 -1.23785e-05
				CHANNELS 6 Xposition Yposition Zposition Zrotation Xrotation Yrotation 
				JOINT Foot_L
				{
					OFFSET 40.9854 0.0 -1.26872e-05
					CHANNELS 6 Xposition Yposition Zposition Zrotation Xrotation Yrotation 
					JOINT Toes_L
					{
						OFFSET 11.7543 0.0 0.0
						CHANNELS 6 Xposition Yposition Zposition Zrotation Xrotation Yrotation 
						End Site
						{
							OFFSET 0.0 0.0 0.0
						}
					}
				}
			}
		}
		JOINT UpperLeg_R
		{
			OFFSET -2.19251 6.46944 0.0
			CHANNELS 6 Xposition Yposition Zposition Zrotation Xrotation Yrotation 
			JOINT LowerLeg_R
			{
				OFFSET -39.0811 -0.00228153 -0.0401928
				CHANNELS 6 Xposition Yposition Zposition Zrotation Xrotation Yrotation 
				JOINT Foot_R
				{
					OFFSET -40.9854 0.0 0.0
					CHANNELS 6 Xposition Yposition Zposition Zrotation Xrotation Yrotation 
					JOINT Toes_R
					{
						OFFSET -11.7543 0.0 0.0
						CHANNELS 6 Xposition Yposition Zposition Zrotation Xrotation Yrotation 
						End Site
						{
							OFFSET 0.0 0.0 0.0
						}
					}
				}
			}
		}
	}
}
MOTION
Frames:	4
Frame Time:	0.0333333
0.000000 0.000000 0.000000 0.000000 0.000000 -0.000000 -0.042832 92.390400 -0.987058 87.723200 -1.261690 4.510230 15.735700 0.000005 -0.000001 87.456600 86.194100 -87.999700 8.984550 -0.406207 -0.000000 -0.162894 -0.300144 -1.086010 16.377300 -0.000001 -0.000001 2.868940 -2.574980 2.618860 6.456720 -0.000001 -0.000000 6.564720 -3.217660 -0.675070 12.994200 -0.242716 4.980390 -89.567500 -1.308660 -71.707500 5.348090 -0.000007 -0.000001 -70.555600 36.566500 -10.743500 24.328600 0.000019 0.000005 1.765170 4.551760 -21.222200 22.291600 -0.000001 0.000005 5.772430 5.470420 -5.385950 12.994500 -0.242716 -4.980390 90.193600 -0.552489 -70.689400 -5.348130 -0.000001 -0.000004 -76.731000 -35.112000 -94.967600 -24.328900 0.000322 -0.000009 10.489000 1.064470 -84.272000 -22.291500 -0.000108 -0.000004 20.742500 5.278610 0.664064 -2.192480 -6.469440 -0.000000 -175.410000 -7.339060 -2.261390 39.081100 -0.000007 -0.000012 -0.098950 0.235951 22.751700 40.985400 -0.000006 -0.000013 0.318180 4.058470 -66.183500 11.754300 -0.000000 0.000003 -0.000043 -0.000501 -16.597000 -2.192510 6.469440 -0.000001 179.881000 13.867600 -179.601000 -39.081100 -0.002282 -0.040193 -0.017524 0.060973 18.876200 -40.985400 0.000008 0.000006 3.867030 8.000710 -65.310500 -11.754300 -0.000006 -0.000006 -0.009272 -0.098115 -20.569800
0.000000 0.000000 0.000000 0.000000 0.000000 -0.000000 -0.031668 92.392400 -0.994723 87.729800 -1.195110 4.527410 15.735700 0.000005 -0.000001 87.547800 86.173700 -88.074200 8.984550 -0.406207 -0.000000 -0.121623 -0.291112 -1.052360 16.377300 -0.000001 -0.000001 2.908550 -2.563210 2.642110 6.456720 -0.000001 -0.000000 6.594150 -3.191660 -0.667802 12.994200 -0.242716 4.980390 -89.562200 -1.325570 -71.719800 5.348090 -0.000007 -0.000001 -70.716100 36.669500 -10.649800 24.328600 0.000019 0.000005 1.738260 4.486350 -21.204300 22.291600 -0.000001 0.000005 5.784770 5.472610 -5.468280 12.994500 -0.242716 -4.980390 90.202300 -0.574965 -70.612700 -5.348130 -0.000001 -0.000004 -76.587400 -35.278000 -95.087700 -24.328900 0.000322 -0.000009 10.270900 1.055080 -84.199800 -22.291500 -0.000108 -0.000004 20.718300 5.277190 0.702937 -2.192480 -6.469440 -0.000000 -175.424000 -7.345760 -2.253220 39.081100 -0.000007 -0.000012 -0.098225 0.234329 22.742300 40.985400 -0.000006 -0.000013 0.340737 4.108680 -66.170400 11.754300 -0.000000 0.000003 -0.000039 -0.000454 -16.595200 -2.192510 6.469440 -0.000001 179.872000 13.903500 -179.590000 -39.081100 -0.002282 -0.040193 -0.016068 0.056673 18.888900 -40.985400 0.000008 0.000006 3.962280 7.953300 -65.332300 -11.754300 -0.000006 -0.000006 -0.009461 -0.099566 -20.629100
0.000000 0.000000 0.000000 0.000000 0.000000 -0.000000 -0.028549 92.391300 -1.003930 87.749300 -1.114280 4.549670 15.735700 0.000005 -0.000001 87.442200 86.155200 -87.949100 8.984550 -0.406207 -0.000000 -0.085162 -0.308366 -1.013460 16.377300 -0.000001 -0.000001 2.964070 -2.610660 2.658990 6.456720 -0.000001 -0.000000 6.667350 -3.246880 -0.717829 12.994200 -0.242716 4.980390 -89.563700 -1.321330 -71.723000 5.348090 -0.000007 -0.000001 -70.849800 36.763300 -10.531100 24.328600 0.000019 0.000005 1.773080 4.558600 -21.279900 22.291600 -0.000001 0.000005 5.796680 5.472010 -5.445100 12.994500 -0.242716 -4.980390 90.226400 -0.640928 -70.539700 -5.348130 -0.000001 -0.000004 -76.282700 -35.466600 -94.925200 -24.328900 0.000322 -0.000009 10.031300 1.013780 -84.290300 -22.291500 -0.000108 -0.000004 20.691900 5.277100 0.705292 -2.192480 -6.469440 -0.000000 -175.447000 -7.303780 -2.253650 39.081100 -0.000007 -0.000012 -0.098290 0.234436 22.746400 40.985400 -0.000006 -0.000013 0.348419 4.133080 -66.158000 11.754300 -0.000000 0.000003 -0.000040 -0.000463 -16.595600 -2.192510 6.469440 -0.000001 179.834000 13.950700 -179.576000 -39.081100 -0.002282 -0.040193 -0.017969 0.062200 18.896900 -40.985400 0.000008 0.000006 3.850070 7.934310 -65.311500 -11.754300 -0.000006 -0.000006 -0.008864 -0.094945 -20.440200
0.000000 0.000000 0.000000 0.000000 0.000000 -0.000000 -0.015930 92.395300 -1.016130 87.748300 -1.064610 4.573590 15.735700 0.000005 -0.000001 87.533400 86.131900 -88.013700 8.984550 -0.406207 -0.000000 -0.038008 -0.300167 -0.959967 16.377300 -0.000001 -0.000001 3.042750 -2.707280 2.655460 6.456720 -0.000001 -0.000000 6.673050 -3.382110 -0.803216 12.994200 -0.242716 4.980390 -89.582700 -1.262380 -71.705000 5.348090 -0.000007 -0.000001 -70.853000 36.921200 -10.507000 24.328600 0.000019 0.000005 1.680920 4.311380 -21.323200 22.291600 -0.000001 0.000005 5.818720 5.471650 -5.432170 12.994500 -0.242716 -4.980390 90.247000 -0.696925 -70.481600 -5.348130 -0.000001 -0.000004 -75.618600 -35.757600 -94.170800 -24.328900 0.000322 -0.000009 9.847920 0.908278 -84.784700 -22.291500 -0.000108 -0.000004 20.703900 5.277080 0.705911 -2.192480 -6.469440 -0.000000 -175.453000 -7.293450 -2.232910 39.081100 -0.000007 -0.000012 -0.097311 0.232312 22.728000 40.985400 -0.000006 -0.000013 0.373582 4.194230 -66.142000 11.754300 -0.000000 0.000003 -0.000039 -0.000458 -16.595400 -2.192510 6.469440 -0.000001 179.842000 13.952500 -179.562000 -39.081100 -0.002282 -0.040193 -0.015463 0.054854 18.904900 -40.985400 0.000008 0.000006 4.003210 7.857870 -65.334800 -11.754300 -0.000006 -0.000006 -0.009163 -0.097274 -20.535500
